G04*
G04 #@! TF.GenerationSoftware,Altium Limited,Altium Designer,20.2.7 (254)*
G04*
G04 Layer_Physical_Order=2*
G04 Layer_Color=16711680*
%FSLAX25Y25*%
%MOIN*%
G70*
G04*
G04 #@! TF.SameCoordinates,ADF9761A-B84E-492D-9E7F-6483C6A28603*
G04*
G04*
G04 #@! TF.FilePolarity,Positive*
G04*
G01*
G75*
%ADD30C,0.05200*%
%ADD31R,0.05200X0.05200*%
%ADD36R,0.04528X0.04528*%
%ADD37C,0.04528*%
%ADD38C,0.02362*%
G36*
X694882Y5906D02*
X9843D01*
Y171260D01*
X694882D01*
Y5906D01*
D02*
G37*
%LPC*%
G36*
X348925Y88739D02*
Y87114D01*
X350550D01*
X350480Y87465D01*
X349998Y88187D01*
X349276Y88669D01*
X348925Y88739D01*
D02*
G37*
G36*
X347925D02*
X347574Y88669D01*
X346853Y88187D01*
X346371Y87465D01*
X346301Y87114D01*
X347925D01*
Y88739D01*
D02*
G37*
G36*
X266248Y88739D02*
Y87114D01*
X267872D01*
X267803Y87465D01*
X267320Y88187D01*
X266599Y88669D01*
X266248Y88739D01*
D02*
G37*
G36*
X265248D02*
X264897Y88669D01*
X264176Y88187D01*
X263693Y87465D01*
X263624Y87114D01*
X265248D01*
Y88739D01*
D02*
G37*
G36*
X23622Y94026D02*
X22723Y93907D01*
X21885Y93560D01*
X21165Y93008D01*
X20613Y92289D01*
X20266Y91451D01*
X20147Y90551D01*
X20266Y89652D01*
X20613Y88814D01*
X21165Y88094D01*
X21885Y87542D01*
X22723Y87195D01*
X23622Y87077D01*
X24521Y87195D01*
X25359Y87542D01*
X26079Y88094D01*
X26631Y88814D01*
X26978Y89652D01*
X27097Y90551D01*
X26978Y91451D01*
X26631Y92289D01*
X26079Y93008D01*
X25359Y93560D01*
X24521Y93907D01*
X23622Y94026D01*
D02*
G37*
G36*
X350550Y86114D02*
X348925D01*
Y84490D01*
X349276Y84560D01*
X349998Y85042D01*
X350480Y85763D01*
X350550Y86114D01*
D02*
G37*
G36*
X347925D02*
X346301D01*
X346371Y85763D01*
X346853Y85042D01*
X347574Y84560D01*
X347925Y84490D01*
Y86114D01*
D02*
G37*
G36*
X267872Y86114D02*
X266248D01*
Y84490D01*
X266599Y84560D01*
X267320Y85042D01*
X267803Y85763D01*
X267872Y86114D01*
D02*
G37*
G36*
X265248D02*
X263624D01*
X263693Y85763D01*
X264176Y85042D01*
X264897Y84560D01*
X265248Y84490D01*
Y86114D01*
D02*
G37*
G36*
X26886Y85941D02*
X24122D01*
Y83177D01*
X26886D01*
Y85941D01*
D02*
G37*
G36*
X23122D02*
X20358D01*
Y83177D01*
X23122D01*
Y85941D01*
D02*
G37*
G36*
X26886Y82177D02*
X24122D01*
Y79413D01*
X26886D01*
Y82177D01*
D02*
G37*
G36*
X23122D02*
X20358D01*
Y79413D01*
X23122D01*
Y82177D01*
D02*
G37*
G36*
X684547Y80216D02*
X677658D01*
Y73327D01*
X684547D01*
Y80216D01*
D02*
G37*
G36*
X681602Y72124D02*
Y69398D01*
X684329D01*
X684282Y69750D01*
X683953Y70544D01*
X683430Y71225D01*
X682748Y71749D01*
X681954Y72077D01*
X681602Y72124D01*
D02*
G37*
G36*
X680602Y72124D02*
X680250Y72077D01*
X679456Y71749D01*
X678775Y71225D01*
X678252Y70544D01*
X677923Y69750D01*
X677876Y69398D01*
X680602D01*
Y72124D01*
D02*
G37*
G36*
X417167Y76616D02*
X409605D01*
Y69054D01*
X417167D01*
Y76616D01*
D02*
G37*
G36*
X393386Y76648D02*
X392399Y76518D01*
X391479Y76137D01*
X390689Y75531D01*
X390083Y74742D01*
X389702Y73822D01*
X389572Y72835D01*
X389702Y71848D01*
X390083Y70928D01*
X390689Y70138D01*
X391479Y69532D01*
X392399Y69151D01*
X393386Y69021D01*
X394373Y69151D01*
X395293Y69532D01*
X396082Y70138D01*
X396689Y70928D01*
X397070Y71848D01*
X397200Y72835D01*
X397070Y73822D01*
X396689Y74742D01*
X396082Y75531D01*
X395293Y76137D01*
X394373Y76518D01*
X393386Y76648D01*
D02*
G37*
G36*
X684329Y68398D02*
X681602D01*
Y65671D01*
X681954Y65718D01*
X682748Y66047D01*
X683430Y66570D01*
X683953Y67252D01*
X684282Y68046D01*
X684329Y68398D01*
D02*
G37*
G36*
X680602D02*
X677876D01*
X677923Y68046D01*
X678252Y67252D01*
X678775Y66570D01*
X679456Y66047D01*
X680250Y65718D01*
X680602Y65671D01*
Y68398D01*
D02*
G37*
G36*
X403386Y66648D02*
X402399Y66518D01*
X401479Y66137D01*
X400689Y65531D01*
X400083Y64741D01*
X399702Y63822D01*
X399572Y62835D01*
X399702Y61848D01*
X400083Y60928D01*
X400689Y60138D01*
X401479Y59532D01*
X402399Y59151D01*
X403386Y59021D01*
X404373Y59151D01*
X405293Y59532D01*
X406082Y60138D01*
X406689Y60928D01*
X407070Y61848D01*
X407200Y62835D01*
X407070Y63822D01*
X406689Y64741D01*
X406082Y65531D01*
X405293Y66137D01*
X404373Y66518D01*
X403386Y66648D01*
D02*
G37*
G36*
X352862Y45432D02*
Y43807D01*
X354487D01*
X354417Y44158D01*
X353935Y44880D01*
X353213Y45362D01*
X352862Y45432D01*
D02*
G37*
G36*
X351862D02*
X351511Y45362D01*
X350790Y44880D01*
X350308Y44158D01*
X350238Y43807D01*
X351862D01*
Y45432D01*
D02*
G37*
G36*
X354487Y42807D02*
X352862D01*
Y41183D01*
X353213Y41252D01*
X353935Y41735D01*
X354417Y42456D01*
X354487Y42807D01*
D02*
G37*
G36*
X351862D02*
X350238D01*
X350308Y42456D01*
X350790Y41735D01*
X351511Y41252D01*
X351862Y41183D01*
Y42807D01*
D02*
G37*
%LPD*%
D30*
X393386Y72835D02*
D03*
X403386Y62835D02*
D03*
D31*
X413386Y72835D02*
D03*
D36*
X23622Y82677D02*
D03*
X681102Y76772D02*
D03*
D37*
X23622Y90551D02*
D03*
X681102Y68898D02*
D03*
D38*
X352362Y43307D02*
D03*
X265748Y86614D02*
D03*
X348425Y86614D02*
D03*
M02*
