G04*
G04 #@! TF.GenerationSoftware,Altium Limited,Altium Designer,20.2.7 (254)*
G04*
G04 Layer_Color=65535*
%FSLAX25Y25*%
%MOIN*%
G70*
G04*
G04 #@! TF.SameCoordinates,ADF9761A-B84E-492D-9E7F-6483C6A28603*
G04*
G04*
G04 #@! TF.FilePolarity,Positive*
G04*
G01*
G75*
%ADD10C,0.00600*%
%ADD11C,0.00984*%
%ADD12C,0.00500*%
%ADD13C,0.00787*%
%ADD14C,0.01000*%
%ADD15C,0.00300*%
D10*
X88883Y53090D02*
G03*
X88883Y53090I-300J0D01*
G01*
X142032Y75327D02*
G03*
X142032Y75327I-300J0D01*
G01*
X181402Y53779D02*
G03*
X181402Y53779I-300J0D01*
G01*
X392736Y82335D02*
G03*
X392736Y82335I-500J0D01*
G01*
X492426Y37244D02*
G03*
X492426Y37244I-300J0D01*
G01*
X616442Y44835D02*
G03*
X616442Y44835I-300J0D01*
G01*
X92643Y57590D02*
X109733D01*
X67433D02*
X84523D01*
X67433D02*
Y99890D01*
X92643D02*
X109733D01*
Y57590D02*
Y99890D01*
X67433D02*
X84523D01*
X185512Y57379D02*
X187302D01*
X174902D02*
X176692D01*
X174902D02*
Y76479D01*
X185512D02*
X187302D01*
Y57379D02*
Y76479D01*
X174902D02*
X176692D01*
X286492Y71314D02*
X289992D01*
X286492Y78014D02*
X289992D01*
X286492Y84714D02*
X289992D01*
X286492Y91414D02*
X289992D01*
X286492Y98114D02*
X289992D01*
X286492Y75114D02*
X289992D01*
X286492Y81814D02*
X289992D01*
X286492Y88514D02*
X289992D01*
X286492Y95214D02*
X289992D01*
X286492Y101914D02*
X289992D01*
X422686Y57335D02*
Y77835D01*
X384186Y57335D02*
X422686D01*
X384186D02*
Y77835D01*
X422686D01*
X551450Y38730D02*
Y40010D01*
X554850Y38730D02*
Y40010D01*
X550650Y26520D02*
X555650D01*
X553150Y23520D02*
X553650Y26520D01*
X553150Y23520D02*
X554150Y26520D01*
X553150Y23520D02*
X554650Y26520D01*
X553150Y23520D02*
X555150Y26520D01*
X553150Y23520D02*
X555650Y26520D01*
X552650D02*
X553150Y23520D01*
X552150Y26520D02*
X553150Y23520D01*
X551650Y26520D02*
X553150Y23520D01*
X551150Y26520D02*
X553150Y23520D01*
X550650Y26520D02*
X553150Y23520D01*
X550650D02*
X555650D01*
X553150Y22520D02*
Y27520D01*
X474752Y125858D02*
Y127148D01*
X496412Y133858D02*
X501302D01*
X500302Y131358D02*
Y136358D01*
X497302Y131358D02*
X500302Y133858D01*
X497302Y131858D02*
X500302Y133858D01*
X497302Y132358D02*
X500302Y133858D01*
X497302Y132858D02*
X500302Y133858D01*
X497302Y133358D02*
X500302Y133858D01*
X497302Y136358D02*
X500302Y133858D01*
X497302Y135858D02*
X500302Y133858D01*
X497302Y135358D02*
X500302Y133858D01*
X497302Y134858D02*
X500302Y133858D01*
X497302Y134358D02*
X500302Y133858D01*
X497302Y131358D02*
Y136358D01*
X474752Y141858D02*
X493752D01*
X474752Y140568D02*
Y141858D01*
Y125858D02*
X493752D01*
Y127148D01*
Y140568D02*
Y141858D01*
X595942Y93035D02*
X612282D01*
X636342Y52635D02*
Y93035D01*
X620002D02*
X636342D01*
X595942Y52635D02*
Y93035D01*
Y52635D02*
X612282D01*
X620002D02*
X636342D01*
D11*
X368799Y141732D02*
G03*
X368799Y141732I-492J0D01*
G01*
D12*
X22047Y70764D02*
X25197D01*
X23622Y73520D02*
X25197Y70764D01*
X22047D02*
X23622Y73520D01*
X17717Y74803D02*
Y98425D01*
X32087D01*
Y74803D02*
Y98425D01*
X17717Y74803D02*
X32087D01*
X561732Y77953D02*
Y95276D01*
X548504Y77953D02*
Y95276D01*
X679528Y88685D02*
X682677D01*
X679528D02*
X681102Y85929D01*
X682677Y88685D01*
X687008Y61024D02*
Y84646D01*
X672638Y61024D02*
X687008D01*
X672638D02*
Y84646D01*
X687008D01*
D13*
X371260Y150295D02*
Y162205D01*
Y121260D02*
Y133169D01*
Y121260D02*
X412205D01*
Y150295D02*
Y162205D01*
Y121260D02*
Y133169D01*
X371260Y162205D02*
X412205D01*
D14*
X344426Y65899D02*
Y71897D01*
X347426D01*
X348425Y70897D01*
Y68898D01*
X347426Y67898D01*
X344426D01*
X346426D02*
X348425Y65899D01*
X350425D02*
X352424D01*
X351424D01*
Y71897D01*
X350425Y70897D01*
X68898Y112236D02*
X67898Y113235D01*
X65899D01*
X64899Y112236D01*
Y108237D01*
X65899Y107237D01*
X67898D01*
X68898Y108237D01*
X70897Y107237D02*
X72896D01*
X71897D01*
Y113235D01*
X70897Y112236D01*
X136796Y100425D02*
X135796Y101424D01*
X133797D01*
X132797Y100425D01*
Y96426D01*
X133797Y95426D01*
X135796D01*
X136796Y96426D01*
X142794Y95426D02*
X138795D01*
X142794Y99425D01*
Y100425D01*
X141794Y101424D01*
X139795D01*
X138795Y100425D01*
X171198Y93550D02*
Y87552D01*
X174197D01*
X175197Y88552D01*
Y92550D01*
X174197Y93550D01*
X171198D01*
X177196Y87552D02*
X179196D01*
X178196D01*
Y93550D01*
X177196Y92550D01*
X270592Y123078D02*
Y118079D01*
X271592Y117080D01*
X273591D01*
X274591Y118079D01*
Y123078D01*
X276590Y122078D02*
X277590Y123078D01*
X279589D01*
X280589Y122078D01*
Y121078D01*
X278590Y119079D01*
Y118079D02*
Y117080D01*
X376891Y83615D02*
Y89613D01*
X379890D01*
X380890Y88613D01*
Y86614D01*
X379890Y85615D01*
X376891D01*
X378891D02*
X380890Y83615D01*
X386888D02*
X382889D01*
X386888Y87614D01*
Y88613D01*
X385889Y89613D01*
X383889D01*
X382889Y88613D01*
X526405Y60086D02*
Y54088D01*
X530404D01*
X536402Y60086D02*
X532403D01*
Y54088D01*
X536402D01*
X532403Y57087D02*
X534403D01*
X538401Y60086D02*
Y54088D01*
X541400D01*
X542400Y55087D01*
Y59086D01*
X541400Y60086D01*
X538401D01*
X544399Y59086D02*
X545399Y60086D01*
X547398D01*
X548398Y59086D01*
Y58086D01*
X546399Y56087D01*
Y55087D02*
Y54088D01*
X479315Y70897D02*
X478316Y71897D01*
X476316D01*
X475317Y70897D01*
Y66898D01*
X476316Y65899D01*
X478316D01*
X479315Y66898D01*
X481315Y70897D02*
X482314Y71897D01*
X484314D01*
X485313Y70897D01*
Y69897D01*
X484314Y68898D01*
X483314D01*
X484314D01*
X485313Y67898D01*
Y66898D01*
X484314Y65899D01*
X482314D01*
X481315Y66898D01*
X451694Y160479D02*
Y154481D01*
X454694D01*
X455693Y155481D01*
Y159480D01*
X454694Y160479D01*
X451694D01*
X461691Y154481D02*
X457693D01*
X461691Y158480D01*
Y159480D01*
X460692Y160479D01*
X458692D01*
X457693Y159480D01*
X581677Y122078D02*
X580678Y123078D01*
X578679D01*
X577679Y122078D01*
Y118079D01*
X578679Y117080D01*
X580678D01*
X581677Y118079D01*
X586676Y117080D02*
Y123078D01*
X583677Y120079D01*
X587676D01*
X17600Y116647D02*
X15600D01*
X16600D01*
Y111648D01*
X15600Y110649D01*
X14601D01*
X13601Y111648D01*
X19599Y110649D02*
X21598D01*
X20598D01*
Y114647D01*
X19599D01*
X24597Y110649D02*
Y114647D01*
X27596D01*
X28596Y113648D01*
Y110649D01*
X368332Y172002D02*
Y166004D01*
X372330D01*
X374330Y171002D02*
X375329Y172002D01*
X377329D01*
X378328Y171002D01*
Y170003D01*
X376329Y168003D01*
Y167004D02*
Y166004D01*
X548419Y104872D02*
Y110871D01*
X551418D01*
X552418Y109871D01*
Y107871D01*
X551418Y106872D01*
X548419D01*
X550418D02*
X552418Y104872D01*
X554417Y109871D02*
X555417Y110871D01*
X557416D01*
X558416Y109871D01*
Y108871D01*
X557416Y107871D01*
X556416D01*
X557416D01*
X558416Y106872D01*
Y105872D01*
X557416Y104872D01*
X555417D01*
X554417Y105872D01*
X660430Y98698D02*
X658431D01*
X659431D01*
Y93700D01*
X658431Y92700D01*
X657431D01*
X656431Y93700D01*
X663429Y92700D02*
X665429D01*
X666428Y93700D01*
Y95699D01*
X665429Y96699D01*
X663429D01*
X662430Y95699D01*
Y93700D01*
X663429Y92700D01*
X668428Y96699D02*
Y93700D01*
X669427Y92700D01*
X672426D01*
Y96699D01*
X675425Y97698D02*
Y96699D01*
X674426D01*
X676425D01*
X675425D01*
Y93700D01*
X676425Y92700D01*
D15*
X281457Y107114D02*
X278125Y103782D01*
Y107114D02*
X281457Y103782D01*
X279791Y107114D02*
Y103782D01*
X278125Y105448D02*
X281457D01*
M02*
