G04*
G04 #@! TF.GenerationSoftware,Altium Limited,Altium Designer,20.2.7 (254)*
G04*
G04 Layer_Color=8388736*
%FSLAX25Y25*%
%MOIN*%
G70*
G04*
G04 #@! TF.SameCoordinates,ADF9761A-B84E-492D-9E7F-6483C6A28603*
G04*
G04*
G04 #@! TF.FilePolarity,Negative*
G04*
G01*
G75*
%ADD16R,0.01100X0.01200*%
%ADD17R,0.05500X0.13000*%
%ADD18R,0.03500X0.02800*%
%ADD19R,0.06200X0.06200*%
%ADD22R,0.03900X0.05900*%
%ADD23R,0.08500X0.10800*%
%ADD24R,0.05100X0.17300*%
%ADD25R,0.10433X0.14173*%
%ADD27R,0.42000X0.41800*%
%ADD28R,0.11400X0.04800*%
%ADD29R,0.14068X0.05013*%
%ADD30C,0.05200*%
%ADD31R,0.05200X0.05200*%
%ADD32R,0.05128X0.05128*%
%ADD33C,0.05128*%
%ADD34C,0.03162*%
D16*
X352362Y49081D02*
D03*
Y51181D02*
D03*
D17*
X88583Y94890D02*
D03*
Y62590D02*
D03*
D18*
X141732Y85327D02*
D03*
Y80027D02*
D03*
X492126Y47244D02*
D03*
Y41944D02*
D03*
D19*
X181102Y73479D02*
D03*
Y60379D02*
D03*
D22*
X553150Y44270D02*
D03*
Y34470D02*
D03*
D23*
X490852Y133858D02*
D03*
X477652D02*
D03*
D24*
X616142Y56485D02*
D03*
Y89185D02*
D03*
D25*
X407579Y141732D02*
D03*
X375886D02*
D03*
D27*
X312992Y86614D02*
D03*
D28*
X279792Y73214D02*
D03*
Y79914D02*
D03*
Y86614D02*
D03*
Y93314D02*
D03*
Y100014D02*
D03*
D29*
X555118Y98642D02*
D03*
Y74587D02*
D03*
D30*
X393386Y72835D02*
D03*
X403386Y62835D02*
D03*
D31*
X413386Y72835D02*
D03*
D32*
X23622Y82677D02*
D03*
X681102Y76772D02*
D03*
D33*
X23622Y90551D02*
D03*
X681102Y68898D02*
D03*
D34*
X352362Y43307D02*
D03*
X265748Y86614D02*
D03*
X348425Y86614D02*
D03*
M02*
